<svg width="512" height="512" viewBox="0 0 512 512" fill="none" xmlns="http://www.w3.org/2000/svg">
<path d="M430.947 236.211C425.559 214.122 412.987 194.392 391.253 184.572C386.456 182.418 376.817 180.83 370.474 180.014C366.564 179.492 363.176 177.043 361.471 173.528L281.174 7C281.174 7 183.94 349.059 101.437 173.777C101.437 173.777 43.1243 281.998 114.51 324.362C119.284 327.197 130.355 331.279 144.883 332.39C179.961 243.4 255.78 179.946 344.284 182.735C338.419 184.459 332.713 186.636 327.097 189.017C267.693 214.19 223.679 265.874 209.22 329.26C195.262 390.401 212.039 456.327 249.483 506.129C225.93 426.936 323.937 190.763 415.647 332.503C415.647 332.503 429.742 295.9 431.174 289.596C434.994 272.814 435.289 253.741 431.015 236.188H430.97L430.947 236.211Z" fill="black"/>
</svg>
